<?xml version="1.0" encoding="utf-8"?>
<!-- Generator: Adobe Illustrator 21.1.0, SVG Export Plug-In . SVG Version: 6.00 Build 0)  -->
<svg version="1.1" id="Calque_1" xmlns="http://www.w3.org/2000/svg" xmlns:xlink="http://www.w3.org/1999/xlink" x="0px" y="0px"
	 viewBox="0 0 60 73" style="enable-background:new 0 0 60 73;" xml:space="preserve">
<style type="text/css">
	.st0{fill:#CCD7DE;}
</style>
<g>
	<path class="st0" d="M31.5,20.4c1.3-0.3,2.5-0.6,3.7-0.8c3.2-0.7,6.4-1.1,9.6-0.9c2.7,0.1,5.4,0.7,7.8,1.7c2.9,1.2,5.2,3.3,6.6,6.1
		c0.7,1.3,0.8,2.8,0.5,4.2c-0.2,1-0.4,2-0.7,3c-0.3,1.2-1,2.2-1.7,3.2c-0.1,0.2-0.2,0.3-0.1,0.6c1.9,3.1,2.6,6.3,1.6,9.9
		c-0.6,2.2-1.8,3.9-3.2,5.5c-0.3,0.3-0.3,0.6-0.3,1c0.8,4.5-0.5,8.4-4,11.4c-1.9,1.7-4.2,2.6-6.7,3.2c-4.6,1.2-9.3,1.3-14,0.9
		c-1.2-0.1-2.5-0.2-3.7-0.4c-0.3,0-0.5,0-0.6,0.3c-0.7,1.1-1.5,2-2.6,2.6c-1.5,0.9-3.1,1.3-4.9,1c-2.8-0.4-5.1-1.9-7.1-3.8
		c-4.3-4-7.8-8.6-10.3-13.9c-0.9-1.8-1.4-3.8-1.5-5.8c-0.1-2,0.4-3.9,1.9-5.3c0.7-0.7,1.6-1.2,2.5-1.7c0.2-0.1,0.3-0.2,0.4-0.5
		c0.6-5.3,2.2-10.3,5.2-14.8c0.5-0.8,0.9-1.6,0.9-2.6c0-1.2-0.5-2.3-1.2-3.2c-1-1.3-2.4-2.3-3.7-3.2c-0.5-0.3-0.8-0.8-1.2-1.2
		c-1.7-2-2.5-4.4-2.9-6.9c-0.1-0.5-0.1-1,0-1.5c0.3-1.3,0.5-2.7,1.4-3.8C4.5,3,6.1,1.8,8.1,1.2c1.5-0.5,3.1-0.8,4.6-1.1
		c2-0.3,3.2,0,4.7,0.4c3.9,0.8,7,2.8,9.5,5.9c1.9,2.4,3.1,5.1,3.7,8.1c0.3,1.8,0.5,3.6,0.8,5.4C31.5,20.1,31.5,20.2,31.5,20.4z
		 M27.3,25.7c0-0.2,0-0.5,0.1-0.7c0.3-3.4,0.3-6.9-0.6-10.2c-1.4-5.4-4.6-9-10.1-10.3c-3.1-0.8-6-0.3-8.7,1.2
		c-1.8,1-2.5,2.7-2.1,4.7c0.3,1.5,1,2.8,1.9,4c0.2,0.3,0.5,0.6,0.8,0.8c1.4,0.9,2.7,2,3.9,3.3c3,3.5,3.1,7.7,0.8,10.9
		c-0.4,0.5-0.7,1.1-1,1.7C10,34.9,8.7,39,8.6,43.4c0,1.1-0.9,2.2-1.9,2.4c-1.8,0.4-2.8,1.5-2.7,3.4c0,1.3,0.4,2.6,0.9,3.8
		c2.4,5.4,5.9,9.9,10.4,13.8c1,0.9,2.1,1.5,3.3,2c0.7,0.3,1.5,0.4,2.3,0.2c1.4-0.3,2.1-1.3,2.7-2.5c0.3-0.6,0.4-1.2,0.7-1.8
		c0.1,0,0.3,0,0.5,0c1.1,0.1,2.2,0.3,3.4,0.4c4.2,0.4,8.3,0.7,12.5,0.1c2.4-0.3,4.8-0.8,7-2.1c3.1-1.8,4.5-4.4,4.2-7.9
		c-0.1-1.2-0.5-2.4-0.7-3.5c0.7-0.7,1.6-1.3,2.2-2c2-2.2,2.8-4.8,1.9-7.8c-0.6-2-1.8-3.6-3.4-4.9c-0.1-0.1-0.3-0.2-0.3-0.3
		c0.8-0.6,1.6-1,2.2-1.7c1.7-1.7,2.3-3.9,2.3-6.3c0-0.2-0.1-0.4-0.2-0.6c-0.9-1.7-2.2-3-3.9-3.9c-2.4-1.3-5-1.7-7.6-1.8
		c-3.8-0.1-7.6,0.5-11.2,1.4C31.2,24.5,29.3,25.1,27.3,25.7z"/>
	<path class="st0" d="M20.7,50.8c0.6-0.3,1.1-0.6,1.7-0.8c2.5-1.3,5.1-2.5,7.6-3.8c0.9-0.4,1.6-0.4,2.1,0.2c0.8,0.9,0.4,2.2-0.7,2.5
		c-0.6,0.2-1.2,0.3-1.9,0.4c-2.9,0.5-5.7,1.1-8.6,1.6C20.8,50.9,20.8,50.9,20.7,50.8z"/>
	<path class="st0" d="M22.1,55.3c0.9-0.2,1.8-0.3,2.6-0.5c2.1-0.4,4.3-0.8,6.4-1.2c0.3-0.1,0.7-0.1,1.1,0c0.5,0.1,0.8,0.5,0.9,1
		c0.1,0.5-0.2,0.9-0.7,1.1c-0.3,0.1-0.7,0.2-1.1,0.2c-3-0.1-6-0.3-9-0.5C22.3,55.4,22.2,55.4,22.1,55.3z"/>
	<path class="st0" d="M17.9,46.9c0.8-0.8,1.6-1.5,2.3-2.2c1.4-1.3,2.9-2.7,4.3-4c0.3-0.3,0.7-0.5,1-0.6c0.4-0.2,0.8,0,1.1,0.3
		c0.3,0.3,0.4,0.7,0.2,1.1c-0.2,0.3-0.5,0.7-0.8,0.8c-2.6,1.5-5.3,3-7.9,4.5C18.1,46.9,18,46.9,17.9,46.9z"/>
</g>
</svg>
